<svg width="49" height="80" viewBox="0 0 49 80" fill="none" xmlns="http://www.w3.org/2000/svg">
<path d="M0.874876 36.7834L2.79988 33.4844C5.77488 28.371 10.2374 24.1649 15.6624 21.3607C18.7249 19.7937 20.1249 19.3813 21.5249 19.3813L27.9999 19.7937C29.9249 19.8762 31.3249 20.7009 36.9249 27.4638C38.5874 29.4432 40.5124 31.1752 42.7874 32.5772L46.8124 35.0514C48.6499 36.2061 49.1749 38.4329 47.9499 40.1649C46.7249 41.8968 44.3624 42.3917 42.5249 41.237L38.4999 38.7628C35.6999 37.0308 33.1624 34.8865 31.0624 32.4123L27.9124 46.5154L34.0374 52.1236C36.4874 54.3504 38.2374 57.237 39.0249 60.4535L42.6124 74.2267C43.2249 76.6185 41.6499 79.0102 39.1124 79.5875C38.7624 79.67 38.3249 79.7525 37.9749 79.7525C35.8749 79.7525 33.9499 78.4329 33.4249 76.371L29.8374 62.5978C29.3999 61.0308 28.6124 59.6288 27.3874 58.5566L21.2624 52.9484L20.6499 56.8246C20.2999 58.804 19.6874 60.7009 18.8124 62.5154L11.4624 77.1958C10.6749 78.7628 8.92488 79.7525 7.17488 79.7525C6.47488 79.7525 5.86238 79.5875 5.16238 79.3401C2.79988 78.2679 1.83737 75.6288 2.88737 73.402L10.2374 58.7215C10.7624 57.7319 11.1124 56.5772 11.2874 55.5051L13.3874 42.3092L14.8749 30.9277C12.8624 32.6597 11.1124 34.6391 9.71237 36.9484L7.78738 40.2473C7.08738 41.4844 5.68738 42.1442 4.37488 42.1442C3.76238 42.1442 3.06238 41.9793 2.53738 41.7319C0.612375 40.8246 -0.0876243 38.5978 0.874876 36.7834Z" fill="black"/>
<path d="M34.5673 10.3205C35.0849 5.83776 31.6491 1.80822 26.8932 1.32031C22.1372 0.832392 17.8622 4.07086 17.3445 8.55363C16.8269 13.0364 20.2627 17.0659 25.0186 17.5539C29.7746 18.0418 34.0496 14.8033 34.5673 10.3205Z" fill="black"/>
</svg>
